<?xml version="1.0" encoding="utf-8"?>
<!-- Generator: Adobe Illustrator 19.0.1, SVG Export Plug-In . SVG Version: 6.00 Build 0)  -->
<svg version="1.1" id="Layer_1" xmlns="http://www.w3.org/2000/svg" xmlns:xlink="http://www.w3.org/1999/xlink" x="0px" y="0px"
	 viewBox="0 0 1440 400" style="enable-background:new 0 0 1440 400;" xml:space="preserve">
<style type="text/css">
	.st0{fill:#FFFFFF;}
</style>
<path class="st0" d="M0,197.3c0,0,12.7,3.3,17.3-3.3l1.3,2.1c0,0,14.7-9.4,29-7.1c0,0,11.7,0.7,17.3-9.3c0,0,2.3-5.7,6.7,0
	c0,0,13.3,13.3,23.3,11c0,0,3.7-1.3,6.7,1.7c0,0,0-28,7.7-32c0,0,1.7-1.3,7,0c0,0,2.3,5,7.7-2.3c0,0,5.7-7.7,7-15.7
	c0,0,9,1.9,16.2,0.8c0,0,5.2-3.4,20.8,5.1c0,0,27.9,14.2,47.5,12.9c0,0,12.8,17,32.1,30.2c0,0,5.8,5.8,26.2,7.4c0,0,7,0.5,11.1-1.8
	c0,0,8-4.9,16.1,3c0,0,16.8,25.4,43.9,29.9c0,0,5.2-9,13.2,1.2c0,0,23.9,1.6,27-6.5l5.5,0.4c0,0,3.5-0.5,3.5-7.5
	c0,0,19.4-2.1,36.4,7.5c0,0,7.4-3.6,11.9,6.3c0,0,11.6,18.6,30.6,19.5c0,0,20.2,2,37.9,18.2c0,0,5,3.1,10.1,0c0,0,6.6-9.5,12.2-0.1
	c0,0,3,4.2,8.5,5.4c0,0,8.9,2.2,14.2,8c0,0,7.6,7,15.5-1.8c0,0,13.4-14.2,36.8-9c0,0,4.9-6.1,9.6,5.4c0,0,29.8,29.9,30.9,24.1
	c0,0,12.1,18.1,18.9,18.6c0,0,7,1.8,13-1.1c0,0,6.2-6.7,10.4,1.7c0,0,1.9,7.3,12.1,7.6c0,0,12,1.1,26.4-11.1c0,0,5.5-4.8,6.8-12.1
	c0,0,0.1-5.2,2.8-4.4c0,0,7.9-1.4,19.4-18c0,0,2.4-3.6,7.8-4.1c0,0,8.2-2.9,12.4-9.5c0,0,3.6-5.6,17.4-4.4c0,0,10.6-1.8,16.6,5.1
	c0,0,6.5,7.9,19.9,6.5c0,0,8.8,0.8,9.5-1c0,0-0.5-1.9,34.5-0.6c0,0,26.2-9.4,40.8-33.8c0,0,15.6-22.6,48.6-23.1l39,0.4
	c0,0,16.4-0.5,23.4,9.9c0,0,25.9,16.1,56,12.1c0,0,10.9-0.8,17.8,6.1c0,0,8.4,4.2,21.8-16.9c0,0,2.1-9.2,9.9-7.6
	c0,0,13.1,0.6,27.5-2.9c0,0,9-1.1,12.1-7.6c0,0,18.8-11.5,23.4-15.6c0,0,6.4-5.1,12,1.4c0,0,17.4,15.4,27.8,11.9
	c0,0,6.2,10.8,15.6,0c0,0,10.1-8.5,14.1,4.6l48-1.1c0,0,36.4-0.1,46,15.8c0,0,18.2,11.1,33.8,2.1c0,0,19.9-5.1,25.5,9
	c0,0,17.4-0.4,19.9,1.4L1440,400H0V197.3z"/>
</svg>
